<?xml version="1.0" standalone="no"?>
<!DOCTYPE svg PUBLIC "-//W3C//DTD SVG 20010904//EN"
 "http://www.w3.org/TR/2001/REC-SVG-20010904/DTD/svg10.dtd">
<svg version="1.0" xmlns="http://www.w3.org/2000/svg"
 width="1280.000000pt" height="1280.000000pt" viewBox="0 0 1280.000000 1280.000000"
 preserveAspectRatio="xMidYMid meet">
<metadata>
Created by potrace 1.15, written by Peter Selinger 2001-2017
</metadata>
<g transform="translate(0.000000,1280.000000) scale(0.100000,-0.100000)"
fill="#000000" stroke="none">
<path d="M6605 11166 c-56 -25 -114 -102 -180 -239 -69 -148 -100 -213 -125
-272 -10 -22 -47 -103 -83 -180 -63 -137 -91 -197 -147 -320 -28 -62 -34 -76
-145 -315 -37 -80 -76 -163 -85 -185 -10 -22 -34 -75 -54 -118 -20 -42 -36
-79 -36 -81 0 -2 -22 -50 -49 -107 -27 -57 -75 -160 -106 -229 -32 -69 -75
-163 -97 -210 -22 -47 -57 -124 -79 -172 -21 -48 -43 -95 -48 -105 -6 -10 -47
-99 -92 -198 -44 -99 -98 -217 -120 -262 -21 -45 -39 -84 -39 -86 0 -3 -22
-51 -49 -108 -27 -57 -71 -153 -99 -214 -27 -60 -71 -155 -97 -210 -26 -55
-75 -163 -110 -240 -34 -77 -88 -193 -119 -259 -31 -65 -56 -119 -56 -121 0
-2 -21 -48 -46 -102 -55 -117 -62 -133 -155 -333 -63 -138 -72 -163 -76 -230
-5 -65 -3 -78 15 -100 l20 -25 464 5 c254 3 614 5 798 5 l335 0 49 -25 c31
-16 54 -36 64 -56 16 -35 21 -17 -87 -304 -21 -58 -53 -143 -70 -190 -17 -47
-36 -94 -41 -105 -5 -11 -21 -54 -36 -95 -14 -41 -32 -88 -39 -105 -8 -16 -64
-165 -126 -330 -61 -165 -121 -322 -131 -350 -11 -27 -30 -79 -43 -115 -13
-36 -44 -119 -70 -185 -47 -123 -69 -181 -173 -460 -33 -88 -78 -209 -102
-270 -23 -60 -52 -139 -65 -175 -13 -36 -44 -119 -70 -185 -25 -66 -62 -163
-81 -215 -19 -52 -39 -104 -44 -115 -5 -11 -25 -65 -45 -120 -19 -55 -40 -109
-45 -120 -6 -11 -28 -69 -50 -130 -21 -60 -60 -164 -85 -230 -25 -66 -57 -149
-69 -185 -13 -36 -46 -126 -74 -200 -27 -74 -53 -150 -56 -168 -6 -36 17 -106
33 -100 12 4 167 211 1506 2003 197 264 523 701 725 970 201 270 480 643 619
830 140 187 273 365 296 395 55 72 175 232 625 835 205 275 395 529 422 565
66 89 90 141 86 187 l-3 38 -200 6 c-110 4 -573 7 -1029 8 -751 1 -828 2 -822
17 3 9 44 73 89 142 46 70 133 201 192 292 60 91 165 251 233 355 69 105 176
267 237 360 62 94 177 269 257 390 79 121 198 301 263 400 65 99 182 277 260
395 233 353 432 656 533 810 52 80 130 198 172 262 98 147 121 233 78 285 -16
19 -2380 18 -2423 -1z"/>
<path d="M5450 10521 c-562 -148 -1163 -468 -1635 -871 -718 -615 -1228 -1430
-1430 -2285 -59 -249 -74 -345 -100 -645 -19 -219 -19 -367 0 -598 22 -267 32
-346 75 -552 89 -427 195 -738 380 -1115 291 -591 727 -1127 1225 -1505 200
-152 244 -173 307 -147 46 19 85 68 125 157 19 41 38 84 43 95 53 116 100 314
100 422 0 72 -19 162 -48 222 -18 40 -59 82 -267 276 -190 178 -317 327 -471
555 -363 535 -574 1221 -574 1863 0 405 93 854 260 1252 258 615 700 1148
1255 1512 237 156 290 197 423 333 139 142 249 301 343 494 80 164 140 358
164 529 8 58 15 58 -175 8z"/>
<path d="M8876 9829 c-43 -38 -260 -338 -318 -439 -42 -74 -71 -175 -64 -223
10 -63 29 -86 156 -188 396 -317 746 -786 957 -1284 50 -118 125 -326 142
-395 5 -19 23 -87 39 -150 108 -409 130 -955 56 -1390 -31 -181 -127 -522
-180 -637 -7 -17 -14 -33 -14 -36 0 -3 -23 -54 -51 -113 -269 -567 -670 -1024
-1219 -1391 -204 -136 -455 -266 -675 -348 -246 -92 -469 -150 -712 -185 -189
-27 -200 -28 -433 -36 -241 -8 -306 -23 -418 -98 -141 -94 -327 -327 -438
-550 -41 -83 -46 -99 -38 -127 13 -47 48 -67 154 -88 331 -69 942 -76 1330
-15 422 66 787 172 1152 333 1068 474 1880 1355 2278 2471 76 213 120 368 161
557 5 27 12 57 14 68 20 94 56 354 65 464 13 172 13 549 0 706 -11 136 -44
370 -65 460 -70 302 -114 456 -190 660 -276 740 -740 1384 -1355 1880 -135
109 -181 135 -238 135 -43 0 -55 -5 -96 -41z"/>
</g>
</svg>
